<svg xmlns="http://www.w3.org/2000/svg" width="440.398" height="411.882" viewBox="0 0 440.398 411.882"><defs><style>.a{fill:#ffb8b8;}.b{fill:#575a89;}.c{opacity:0.2;}.d{fill:#2f2e41;}.e{fill:#3f3d56;}.f{opacity:0.1;}.g{fill:#3ba093;}</style></defs><g transform="translate(0 0)"><path class="a" d="M829.232,604.414s54.483,2.817,41.793,19.968-46.036-10.061-46.036-10.061Z" transform="translate(-478.47 -311.778)"/><path class="b" d="M640,313.448l11.09,2.772s6.469,19.407,11.09,36.966,13.862,70.235,13.862,70.235l71.646,50.212-8.545,19.116L643.7,455.132,622.443,371.67Z" transform="translate(-389.643 -184.174)"/><path class="c" d="M448.274,291.607l-4.133,86.556,8.625,25.734L427.5,385.369Z" transform="translate(-187.481 -127.885)"/><path class="d" d="M598.724,639.027s12.014,32.345,13.862,54.525,3.7,39.738,3.7,39.738H559.91l-11.09-16.635v16.634H483.205s-18.483-60.069-11.09-67.462,77.629-38.814,77.629-38.814Z" transform="translate(-322.951 -321.689)"/><rect class="e" width="326.201" height="1.123" transform="translate(56.987 410.759)"/><circle class="a" cx="35.118" cy="35.118" r="35.118" transform="translate(169.957 23.921)"/><path class="a" d="M523.162,214.688,520.39,255.35l35.118,47.131,17.559-44.359S557.356,247.957,566.6,226.7Z" transform="translate(-344.888 -140.863)"/><path class="b" d="M582.43,484.962c0,8.321-23.1,21.256-23.1,21.256v4.621l-9.241,4.621-20.33-40.66-5.541,44.354s-40.666,6.474-53.6,0S451.2,515.46,432.72,508.992s7.394-93.341,7.394-93.341l-18.483-134,40.379-20.19,2.128-1.067,5.553-1.022L478.2,257.8l28.449,19.23,2.291,12.015,1.409,7.394,7.389-8.321,5.581-18.354,39.706,22.054-11.089,88.714S582.43,476.647,582.43,484.962Z" transform="translate(-301.577 -159.769)"/><path class="a" d="M458.853,713.428s42.511,34.193,22.18,40.662-31.421-35.118-31.421-35.118Z" transform="translate(-313.848 -359.586)"/><path class="b" d="M409.216,302.128l-9.241-1.848s-13.862,7.393-14.786,22.18S372.25,440.75,372.25,440.75l38.814,104.429,31.421-12.014-30.5-97.96,23.1-85.022Z" transform="translate(-279.921 -178.399)"/><circle class="d" cx="3.369" cy="3.369" r="3.369" transform="translate(205.77 145.194)"/><circle class="d" cx="3.369" cy="3.369" r="3.369" transform="translate(205.77 167.091)"/><circle class="d" cx="3.369" cy="3.369" r="3.369" transform="translate(224.86 311.383)"/><path class="d" d="M513.075,106.259l-6.492-2.6s13.573-14.944,32.458-13.644l-5.311-5.848s12.983-5.2,24.786,8.446c6.2,7.172,13.383,15.6,17.859,25.1h6.952l-2.9,6.389,10.155,6.389-10.424-1.148a35.7,35.7,0,0,1,.283,10.6,13.711,13.711,0,0,1-5.021,8.97h0s-8.051-16.664-8.051-19.263v6.5s-6.492-5.847-6.492-9.746l-3.541,4.548H533.73l3.541-5.847L523.7,127.05l5.312-7.147-21.016,29.512S495.96,116.005,513.075,106.259Z" transform="translate(-337.649 -83.197)"/><circle class="e" cx="56.145" cy="56.145" r="56.145" transform="translate(328.109 159.196)"/><circle class="f" cx="48.284" cy="48.284" r="48.284" transform="translate(335.969 167.056)"/><path class="g" d="M880.758,472.868v-7.028a16.319,16.319,0,0,1-9.371-3.062l1.47-4.662a14.981,14.981,0,0,0,8.82,2.992c4.349,0,7.289-2.853,7.289-6.819,0-3.827-2.389-6.193-6.921-8.28-6.247-2.783-10.106-5.984-10.106-12.037a10.94,10.94,0,0,1,9.249-11.2v-7.028h3.8v6.749a14.9,14.9,0,0,1,7.963,2.435l-1.531,4.593a13.534,13.534,0,0,0-7.717-2.366c-4.716,0-6.492,3.2-6.492,5.984,0,3.618,2.266,5.427,7.6,7.932,6.309,2.922,9.494,6.541,9.494,12.733a11.644,11.644,0,0,1-9.678,11.828v7.237Z" transform="translate(-498.819 -229.035)"/><path class="c" d="M250.005,502.648l22.455,70.143L254.494,499.8Z" transform="translate(-109.64 -219.19)"/><path class="e" d="M240.931,324.335H226.678a2.346,2.346,0,0,1-2.343-2.343V301.5a2.346,2.346,0,0,1,2.343-2.343h14.253a2.346,2.346,0,0,1,2.343,2.343v20.489A2.346,2.346,0,0,1,240.931,324.335Zm-14.253-24.052a1.222,1.222,0,0,0-1.22,1.22v20.489a1.222,1.222,0,0,0,1.221,1.22h14.253a1.222,1.222,0,0,0,1.22-1.22V301.5a1.222,1.222,0,0,0-1.22-1.22Z" transform="translate(-215.052 -177.908)"/><path class="e" d="M287.84,306.939H274.968a3.038,3.038,0,0,1-3.034-3.034V262.527a3.038,3.038,0,0,1,3.034-3.034H287.84a3.038,3.038,0,0,1,3.034,3.034v41.378A3.038,3.038,0,0,1,287.84,306.939Zm-12.872-46.323a1.913,1.913,0,0,0-1.911,1.911v41.378a1.913,1.913,0,0,0,1.911,1.911H287.84a1.913,1.913,0,0,0,1.911-1.911V262.527a1.913,1.913,0,0,0-1.911-1.911Z" transform="translate(-235.927 -160.512)"/><path class="e" d="M334.943,290.935H323.066a3.535,3.535,0,0,1-3.531-3.531V226.531A3.535,3.535,0,0,1,323.066,223h11.878a3.535,3.535,0,0,1,3.531,3.531V287.4a3.535,3.535,0,0,1-3.531,3.531Zm-11.877-66.812a2.411,2.411,0,0,0-2.408,2.408V287.4a2.411,2.411,0,0,0,2.408,2.408h11.878a2.411,2.411,0,0,0,2.408-2.408V226.531a2.411,2.411,0,0,0-2.408-2.408Z" transform="translate(-256.802 -144.508)"/><rect class="g" width="10.69" height="17.371" transform="translate(13.407 125.154)"/><rect class="g" width="10.69" height="39.419" transform="translate(40.132 103.106)"/><rect class="g" width="10.69" height="59.908" transform="translate(66.857 82.617)"/><path class="e" d="M872.035,168.918H797.362a.561.561,0,0,1-.561-.561v-75.8a.561.561,0,0,1,1.123,0V167.8h74.111a.561.561,0,0,1,0,1.123Z" transform="translate(-466.109 -87.057)"/><path class="e" d="M297.071,288.27H208.362a.561.561,0,0,1-.561-.561V199.561a.561.561,0,1,1,1.123,0v87.586h88.147a.561.561,0,1,1,0,1.123Z" transform="translate(-207.801 -133.983)"/><path class="e" d="M830.736,196.8H816.483a2.346,2.346,0,0,1-2.343-2.343V173.971a2.346,2.346,0,0,1,2.343-2.343h14.253a2.346,2.346,0,0,1,2.343,2.343V194.46A2.346,2.346,0,0,1,830.736,196.8ZM816.483,172.75a1.222,1.222,0,0,0-1.22,1.22V194.46a1.222,1.222,0,0,0,1.22,1.22h14.253a1.221,1.221,0,0,0,1.22-1.22V173.971a1.221,1.221,0,0,0-1.22-1.22Z" transform="translate(-473.712 -121.978)"/><path class="e" d="M883.168,182.932H870.05a2.914,2.914,0,0,1-2.91-2.911V142.911A2.913,2.913,0,0,1,870.05,140h13.119a2.914,2.914,0,0,1,2.91,2.91v37.111A2.914,2.914,0,0,1,883.168,182.932ZM870.05,141.123a1.789,1.789,0,0,0-1.787,1.787v37.111a1.789,1.789,0,0,0,1.787,1.788h13.119a1.789,1.789,0,0,0,1.787-1.788V142.911a1.789,1.789,0,0,0-1.787-1.788Z" transform="translate(-496.956 -108.108)"/><rect class="g" width="10.69" height="17.371" transform="translate(344.295 53.746)"/><rect class="g" width="10.69" height="33.61" transform="translate(374.309 36.553)"/><circle class="g" cx="5.053" cy="5.053" r="5.053" transform="translate(344.729 33.576)"/><circle class="g" cx="5.053" cy="5.053" r="5.053" transform="translate(374.485 14.487)"/></g></svg>