<svg xmlns="http://www.w3.org/2000/svg" width="55.068" height="55.148" viewBox="0 0 55.068 55.148"><defs><style>.a{fill:#112891;}</style></defs><path class="a" d="M30.521,58.153c-7.522,0-8.409-.04-11.344-.168A20.13,20.13,0,0,1,12.5,56.609a14.123,14.123,0,0,1-8.042-8.045,20.154,20.154,0,0,1-1.281-6.687C3,38.948,3,37.987,3,30.524c0-7.543.04-8.424.171-11.344A20.15,20.15,0,0,1,4.454,12.5a14.1,14.1,0,0,1,8.051-8.048A19.977,19.977,0,0,1,19.183,3.17c2.92-.165,3.88-.165,11.338-.165,7.583,0,8.454.04,11.344.165a20.1,20.1,0,0,1,6.7,1.284A14.111,14.111,0,0,1,56.612,12.5,20.1,20.1,0,0,1,57.9,19.281c.171,2.929.171,3.886.171,11.347s-.043,8.439-.171,11.335a20.189,20.189,0,0,1-1.284,6.693A14.139,14.139,0,0,1,48.561,56.7a20.214,20.214,0,0,1-6.684,1.281C38.957,58.153,38,58.153,30.521,58.153Zm-.1-50.307c-7.479,0-8.256.037-11.176.168a15.256,15.256,0,0,0-5.1.951A9.139,9.139,0,0,0,8.882,14.2a15.335,15.335,0,0,0-.951,5.158c-.162,2.963-.162,3.739-.162,11.167,0,7.338.028,8.228.162,11.173A15.494,15.494,0,0,0,8.882,46.8a9.145,9.145,0,0,0,5.256,5.232,15.046,15.046,0,0,0,5.1.951c2.96.171,3.739.171,11.176.171,7.5,0,8.277-.037,11.173-.171a15.172,15.172,0,0,0,5.106-.951,9.174,9.174,0,0,0,5.229-5.226,15.42,15.42,0,0,0,.951-5.161h.034c.131-2.923.131-3.7.131-11.173s-.034-8.256-.165-11.176a15.469,15.469,0,0,0-.951-5.1A9.174,9.174,0,0,0,46.7,8.964a15.116,15.116,0,0,0-5.106-.951C38.633,7.845,37.859,7.845,30.417,7.845Zm.1,36.8A14.135,14.135,0,1,1,44.647,30.508,14.136,14.136,0,0,1,30.521,44.647Zm0-23.318A9.173,9.173,0,1,0,39.694,30.5,9.173,9.173,0,0,0,30.521,21.329ZM45.2,19.149a3.3,3.3,0,1,1,2.34-.964A3.3,3.3,0,0,1,45.2,19.149Z" transform="translate(-3.002 -3.005)"/></svg>