<svg xmlns="http://www.w3.org/2000/svg" width="90.961" height="97.505" viewBox="0 0 90.961 97.505"><defs><style>.a{fill:#150956;}</style></defs><path class="a" d="M106.712,272.532a1.431,1.431,0,0,0-1.431,1.431v38.675a2.639,2.639,0,0,1-2.636,2.636h-33.7a2.639,2.639,0,0,1-2.636-2.636v-3.8a1.431,1.431,0,1,0-2.862,0v3.8a5.462,5.462,0,0,0,.675,2.636h-43.6a.478.478,0,0,1-.477-.477V280.271a1.431,1.431,0,0,0-2.862,0V314.8a3.343,3.343,0,0,0,3.339,3.339h82.122a5.5,5.5,0,0,0,5.5-5.5V273.963a1.431,1.431,0,0,0-1.431-1.431Z" transform="translate(-17.183 -220.631)"/><path class="a" d="M102.646,30.734H88.812V19.165a1.441,1.441,0,0,0-.419-1.012L70.659.419A1.441,1.441,0,0,0,69.647,0H20.523a3.343,3.343,0,0,0-3.339,3.339V53.915a1.431,1.431,0,1,0,2.862,0V3.339a.478.478,0,0,1,.477-.477H68.216V15.348A5.253,5.253,0,0,0,73.463,20.6H85.949V30.733H68.944a5.5,5.5,0,0,0-5.5,5.5v.224H40.768a1.431,1.431,0,1,0,0,2.862H63.445v9.721H40.768a1.431,1.431,0,0,0,0,2.862H63.445v9.721H40.768a1.431,1.431,0,1,0,0,2.862H63.445v9.721H40.768a1.431,1.431,0,1,0,0,2.862H63.445v5.412a1.431,1.431,0,1,0,2.862,0V36.232A2.639,2.639,0,0,1,68.944,33.6h33.7a2.639,2.639,0,0,1,2.636,2.636V47.608a1.431,1.431,0,0,0,2.862,0V36.232a5.505,5.505,0,0,0-5.5-5.5ZM71.078,15.348V4.886L83.925,17.734H73.463a2.388,2.388,0,0,1-2.385-2.385Z" transform="translate(-17.184 0)"/><path class="a" d="M328.634,199.368a3.343,3.343,0,0,0-3.339-3.339H301.533a3.343,3.343,0,0,0-3.339,3.339v8.08a3.343,3.343,0,0,0,3.339,3.339h23.762a3.343,3.343,0,0,0,3.339-3.339Zm-2.862,8.08a.478.478,0,0,1-.477.477H301.533a.478.478,0,0,1-.477-.477v-8.08a.478.478,0,0,1,.477-.477h23.762a.478.478,0,0,1,.477.477Z" transform="translate(-244.678 -158.697)"/><path class="a" d="M298.194,310.074a3.2,3.2,0,0,0,3.2,3.2h2.725a3.2,3.2,0,0,0,3.2-3.2v-2.725a3.2,3.2,0,0,0-3.2-3.2h-2.725a3.2,3.2,0,0,0-3.2,3.2Zm2.862-2.725a.334.334,0,0,1,.333-.333h2.725a.334.334,0,0,1,.333.333v2.725a.334.334,0,0,1-.333.333h-2.725a.334.334,0,0,1-.333-.333Z" transform="translate(-244.678 -246.231)"/><path class="a" d="M363.3,307.35a3.2,3.2,0,0,0-3.2-3.2h-2.725a3.2,3.2,0,0,0-3.2,3.2v2.725a3.2,3.2,0,0,0,3.2,3.2H360.1a3.2,3.2,0,0,0,3.2-3.2Zm-2.862,2.725a.334.334,0,0,1-.333.333h-2.725a.334.334,0,0,1-.333-.333V307.35a.334.334,0,0,1,.333-.333H360.1a.334.334,0,0,1,.333.333v2.725Z" transform="translate(-290.004 -246.232)"/><path class="a" d="M419.284,307.35a3.2,3.2,0,0,0-3.2-3.2h-2.725a3.2,3.2,0,0,0-3.2,3.2v2.725a3.2,3.2,0,0,0,3.2,3.2h2.725a3.2,3.2,0,0,0,3.2-3.2Zm-2.862,2.725a.334.334,0,0,1-.333.333h-2.725a.334.334,0,0,1-.333-.333V307.35a.334.334,0,0,1,.333-.333h2.725a.334.334,0,0,1,.333.333Z" transform="translate(-335.329 -246.232)"/><path class="a" d="M298.194,371.345a3.2,3.2,0,0,0,3.2,3.2h2.725a3.2,3.2,0,0,0,3.2-3.2V368.62a3.2,3.2,0,0,0-3.2-3.2h-2.725a3.2,3.2,0,0,0-3.2,3.2Zm2.862-2.725a.334.334,0,0,1,.333-.333h2.725a.333.333,0,0,1,.333.333v2.725a.334.334,0,0,1-.333.333h-2.725a.334.334,0,0,1-.333-.333Z" transform="translate(-244.678 -295.834)"/><path class="a" d="M363.3,368.62a3.2,3.2,0,0,0-3.2-3.2h-2.725a3.2,3.2,0,0,0-3.2,3.2v2.725a3.2,3.2,0,0,0,3.2,3.2H360.1a3.2,3.2,0,0,0,3.2-3.2Zm-2.862,2.725a.334.334,0,0,1-.333.333h-2.725a.334.334,0,0,1-.333-.333V368.62a.334.334,0,0,1,.333-.333H360.1a.333.333,0,0,1,.333.333v2.725Z" transform="translate(-290.004 -295.834)"/><path class="a" d="M298.194,432.615a3.2,3.2,0,0,0,3.2,3.2h2.725a3.2,3.2,0,0,0,3.2-3.2V429.89a3.2,3.2,0,0,0-3.2-3.2h-2.725a3.2,3.2,0,0,0-3.2,3.2Zm2.862-2.725a.334.334,0,0,1,.333-.333h2.725a.333.333,0,0,1,.333.333v2.725a.334.334,0,0,1-.333.333h-2.725a.334.334,0,0,1-.333-.333Z" transform="translate(-244.678 -345.435)"/><path class="a" d="M360.1,426.7h-2.725a3.2,3.2,0,0,0-3.2,3.2v2.725a3.2,3.2,0,0,0,3.2,3.2H360.1a3.2,3.2,0,0,0,3.2-3.2v-2.725A3.2,3.2,0,0,0,360.1,426.7Zm.333,5.92a.334.334,0,0,1-.333.333h-2.725a.334.334,0,0,1-.333-.333v-2.725a.334.334,0,0,1,.333-.333H360.1a.333.333,0,0,1,.333.333v2.725Z" transform="translate(-290.004 -345.436)"/><path class="a" d="M415.819,365.425h-2.185a3.469,3.469,0,0,0-3.465,3.465v13.853a3.469,3.469,0,0,0,3.465,3.465h2.185a3.469,3.469,0,0,0,3.465-3.465V368.89A3.469,3.469,0,0,0,415.819,365.425Zm.6,17.318a.6.6,0,0,1-.6.6h-2.185a.6.6,0,0,1-.6-.6V368.89a.6.6,0,0,1,.6-.6h2.185a.6.6,0,0,1,.6.6Z" transform="translate(-335.329 -295.834)"/><path class="a" d="M71.124,128.217h5.713a1.431,1.431,0,1,0,0-2.862H71.124a1.431,1.431,0,1,0,0,2.862Z" transform="translate(-59.693 -101.482)"/><path class="a" d="M134.938,128.217h27.543a1.431,1.431,0,1,0,0-2.862H134.938a1.431,1.431,0,0,0,0,2.862Z" transform="translate(-111.354 -101.482)"/><path class="a" d="M71.124,194.29h5.713a1.431,1.431,0,0,0,0-2.862H71.124a1.431,1.431,0,1,0,0,2.862Z" transform="translate(-59.693 -154.973)"/><path class="a" d="M71.124,260.364h5.713a1.431,1.431,0,0,0,0-2.862H71.124a1.431,1.431,0,0,0,0,2.862Z" transform="translate(-59.693 -208.463)"/><path class="a" d="M71.124,326.438h5.713a1.431,1.431,0,0,0,0-2.862H71.124a1.431,1.431,0,0,0,0,2.862Z" transform="translate(-59.693 -261.954)"/><path class="a" d="M71.124,392.512h5.713a1.431,1.431,0,0,0,0-2.862H71.124a1.431,1.431,0,0,0,0,2.862Z" transform="translate(-59.693 -315.445)"/></svg>