<svg xmlns="http://www.w3.org/2000/svg" width="80.764" height="97.214" viewBox="0 0 80.764 97.214"><defs><style>.a{fill:#150956;}</style></defs><g transform="translate(0 0)"><path class="a" d="M90.5,144.019h41.311a1.422,1.422,0,0,0,0-2.844H90.5a1.422,1.422,0,1,0,0,2.844Z" transform="translate(-80.387 -114.37)"/><path class="a" d="M90.5,187.5h27.819a1.422,1.422,0,1,0,0-2.844H90.5a1.422,1.422,0,1,0,0,2.844Z" transform="translate(-80.387 -149.594)"/><path class="a" d="M90.5,230.977h22.236a1.422,1.422,0,0,0,0-2.844H90.5a1.422,1.422,0,1,0,0,2.844Z" transform="translate(-80.387 -184.817)"/><path class="a" d="M90.5,274.456h22.236a1.422,1.422,0,0,0,0-2.844H90.5a1.422,1.422,0,0,0,0,2.844Z" transform="translate(-80.387 -220.041)"/><path class="a" d="M90.5,317.935h22.236a1.422,1.422,0,1,0,0-2.844H90.5a1.422,1.422,0,1,0,0,2.844Z" transform="translate(-80.387 -255.264)"/><path class="a" d="M90.5,361.413h27.819a1.422,1.422,0,1,0,0-2.844H90.5a1.422,1.422,0,1,0,0,2.844Z" transform="translate(-80.387 -290.487)"/><path class="a" d="M90.5,404.892h30.764a1.422,1.422,0,1,0,0-2.844H90.5a1.422,1.422,0,0,0,0,2.844Z" transform="translate(-80.387 -325.711)"/><path class="a" d="M90.5,448.371h30.764a1.422,1.422,0,1,0,0-2.844H90.5a1.422,1.422,0,1,0,0,2.844Z" transform="translate(-80.387 -360.934)"/><path class="a" d="M122.691,54.792a6.237,6.237,0,0,0,1.393-3.453,6.238,6.238,0,0,0-1.393-3.453,5.935,5.935,0,0,1-.828-1.486,6.178,6.178,0,0,1-.037-1.785,6.155,6.155,0,0,0-.508-3.606,6.193,6.193,0,0,0-2.9-2.26,6.061,6.061,0,0,1-1.5-.9,6.071,6.071,0,0,1-.9-1.5,6.193,6.193,0,0,0-2.26-2.9,6.159,6.159,0,0,0-3.606-.509,6.179,6.179,0,0,1-1.785-.036,5.936,5.936,0,0,1-1.486-.828,9.569,9.569,0,0,0-2.031-1.131V16.827a4.3,4.3,0,0,0-4.295-4.295H89.6V10.363a2.569,2.569,0,0,0-2.56-2.571H81.174v-.65A7.089,7.089,0,1,0,67,7.142v.65H61.133a2.569,2.569,0,0,0-2.56,2.571v2.169H47.615a4.3,4.3,0,0,0-4.294,4.295V92.919a4.3,4.3,0,0,0,4.294,4.295H57.958a1.422,1.422,0,1,0,0-2.844H47.615a1.452,1.452,0,0,1-1.451-1.451V16.827a1.452,1.452,0,0,1,1.451-1.451H58.573v2.169a2.569,2.569,0,0,0,2.56,2.571h25.9a2.569,2.569,0,0,0,2.56-2.571V15.376h10.958a1.452,1.452,0,0,1,1.451,1.451V30.945a9.561,9.561,0,0,0-2.032,1.131,5.935,5.935,0,0,1-1.486.828,6.165,6.165,0,0,1-1.785.036,6.157,6.157,0,0,0-3.606.509,6.193,6.193,0,0,0-2.26,2.9,6.059,6.059,0,0,1-.9,1.5,6.062,6.062,0,0,1-1.5.9,6.192,6.192,0,0,0-2.9,2.26,6.154,6.154,0,0,0-.509,3.606,6.178,6.178,0,0,1-.037,1.785,5.935,5.935,0,0,1-.828,1.486,6.237,6.237,0,0,0-1.393,3.453,6.236,6.236,0,0,0,1.393,3.453,5.933,5.933,0,0,1,.828,1.487,6.173,6.173,0,0,1,.036,1.785,6.156,6.156,0,0,0,.509,3.606,6.192,6.192,0,0,0,2.9,2.26,6.059,6.059,0,0,1,1.5.9,6.061,6.061,0,0,1,.9,1.5,6.193,6.193,0,0,0,2.26,2.9,3.915,3.915,0,0,0,1.133.432v15.35a2.419,2.419,0,0,0,3.528,2.156l4.249-2.178v7.929a1.452,1.452,0,0,1-1.451,1.451H64.539a1.422,1.422,0,0,0,0,2.844h36.016a4.3,4.3,0,0,0,4.295-4.295V84.99l4.248,2.177a2.423,2.423,0,0,0,3.528-2.156V69.661a3.92,3.92,0,0,0,1.133-.432,6.193,6.193,0,0,0,2.26-2.9,6.064,6.064,0,0,1,.9-1.5,6.07,6.07,0,0,1,1.5-.9,6.194,6.194,0,0,0,2.9-2.26,6.153,6.153,0,0,0,.509-3.607,6.184,6.184,0,0,1,.037-1.785A5.931,5.931,0,0,1,122.691,54.792ZM86.754,17.273H61.416V10.636h7A1.422,1.422,0,0,0,69.84,9.214V7.142a4.245,4.245,0,1,1,8.49,0V9.214a1.422,1.422,0,0,0,1.422,1.422h7Zm23.029,67.05-5.249-2.691a2.427,2.427,0,0,0-2.21,0l-5.249,2.691V69.716a4.833,4.833,0,0,1,1.415.059,5.935,5.935,0,0,1,1.486.828,4.978,4.978,0,0,0,6.907,0,5.94,5.94,0,0,1,1.486-.828,4.846,4.846,0,0,1,1.415-.059V84.323ZM120.33,53.207a7.941,7.941,0,0,0-1.214,2.338,8.347,8.347,0,0,0-.127,2.7,4.289,4.289,0,0,1-.133,2,4.3,4.3,0,0,1-1.689,1.132,6.232,6.232,0,0,0-3.7,3.7,4.3,4.3,0,0,1-1.132,1.689,4.287,4.287,0,0,1-2,.132,8.364,8.364,0,0,0-2.7.127,7.943,7.943,0,0,0-2.338,1.214,4.3,4.3,0,0,1-1.868.91,4.3,4.3,0,0,1-1.868-.91,7.943,7.943,0,0,0-2.337-1.214,5.948,5.948,0,0,0-1.538-.176c-.4,0-.795.025-1.166.049a4.282,4.282,0,0,1-2-.132,4.3,4.3,0,0,1-1.132-1.689,6.233,6.233,0,0,0-3.7-3.7A4.3,4.3,0,0,1,88,60.247a4.291,4.291,0,0,1-.132-2,8.348,8.348,0,0,0-.127-2.7,7.932,7.932,0,0,0-1.214-2.338,4.294,4.294,0,0,1-.91-1.868,4.3,4.3,0,0,1,.91-1.868,7.943,7.943,0,0,0,1.214-2.338,8.348,8.348,0,0,0,.127-2.7,4.288,4.288,0,0,1,.133-2A4.294,4.294,0,0,1,89.688,41.3a8.2,8.2,0,0,0,2.258-1.443A8.211,8.211,0,0,0,93.389,37.6a4.3,4.3,0,0,1,1.132-1.689,4.292,4.292,0,0,1,2-.132,8.353,8.353,0,0,0,2.7-.127,7.935,7.935,0,0,0,2.338-1.215,4.294,4.294,0,0,1,1.868-.91,4.3,4.3,0,0,1,1.868.91,7.942,7.942,0,0,0,2.338,1.215,8.354,8.354,0,0,0,2.7.127,4.3,4.3,0,0,1,2,.132,4.3,4.3,0,0,1,1.132,1.689,8.208,8.208,0,0,0,1.443,2.258,8.211,8.211,0,0,0,2.258,1.444,4.3,4.3,0,0,1,1.689,1.131,4.29,4.29,0,0,1,.132,2,8.349,8.349,0,0,0,.127,2.7,7.934,7.934,0,0,0,1.214,2.338,4.3,4.3,0,0,1,.91,1.868,4.3,4.3,0,0,1-.91,1.868Z" transform="translate(-43.32 0)"/><path class="a" d="M307.531,205.76a12.23,12.23,0,0,0-6.615,1.934,1.422,1.422,0,1,0,1.535,2.394,9.409,9.409,0,1,1-3.7,4.511,1.422,1.422,0,1,0-2.648-1.036,12.273,12.273,0,1,0,11.432-7.8Z" transform="translate(-247.424 -166.692)"/></g></svg>