<svg xmlns="http://www.w3.org/2000/svg" width="523.962" height="367.396" viewBox="0 0 523.962 367.396"><defs><style>.a{fill:#f2f2f2;}.b{fill:#fff;}.c{fill:#ccc;}.d{fill:#3ba093;}.e{fill:#3f3d56;}.f{fill:#ffb8b8;}.g{fill:#2f2e41;}.h{opacity:0.2;}.i{fill:#e6e6e6;}.j{fill:#a0616a;}.k{fill:#ff6584;}</style></defs><g transform="translate(0 0)"><path class="a" d="M604,338.105H266.539a8.7,8.7,0,0,1-8.689-8.689V121.331a6.373,6.373,0,0,1,6.366-6.366h342a6.483,6.483,0,0,1,6.476,6.476V329.416A8.7,8.7,0,0,1,604,338.105Z" transform="translate(-176.044 -107.695)"/><path class="b" d="M601.556,340.181H287.05a8.118,8.118,0,0,1-8.361-7.83v-181.2a6.017,6.017,0,0,1,6.2-5.807H603.619a6.117,6.117,0,0,1,6.3,5.9V332.351A8.118,8.118,0,0,1,601.556,340.181Z" transform="translate(-185.909 -122.075)"/><path class="c" d="M612.459,114.3H257.618v-4.424a8.728,8.728,0,0,1,8.72-8.715h337.4a8.728,8.728,0,0,1,8.721,8.715Z" transform="translate(-175.934 -101.16)"/><circle class="b" cx="2.256" cy="2.256" r="2.256" transform="translate(95.277 4.327)"/><circle class="b" cx="2.256" cy="2.256" r="2.256" transform="translate(103.839 4.327)"/><circle class="b" cx="2.256" cy="2.256" r="2.256" transform="translate(112.4 4.327)"/><path class="c" d="M598.678,337.506H354.949a9.226,9.226,0,0,1-9.215-9.215V210.779a6.9,6.9,0,0,1,6.892-6.892H600.891a7.01,7.01,0,0,1,7,7v117.4A9.226,9.226,0,0,1,598.678,337.506ZM352.626,204.939a5.846,5.846,0,0,0-5.839,5.839V328.291a8.171,8.171,0,0,0,8.162,8.162H598.678a8.171,8.171,0,0,0,8.162-8.162v-117.4a5.956,5.956,0,0,0-5.949-5.949Z" transform="translate(-217.648 -149.791)"/><path class="a" d="M371.66,336.667H598.537a8.426,8.426,0,0,0,8.426-8.426V230.007a8.426,8.426,0,0,0-8.426-8.426H371.66a8.426,8.426,0,0,0-8.426,8.426v98.235A8.426,8.426,0,0,0,371.66,336.667Z" transform="translate(-225.933 -158.168)"/><circle class="c" cx="4.739" cy="4.739" r="4.739" transform="translate(166.748 82.515)"/><circle class="c" cx="4.739" cy="4.739" r="4.739" transform="translate(166.748 100.419)"/><circle class="c" cx="4.739" cy="4.739" r="4.739" transform="translate(166.748 118.323)"/><circle class="c" cx="4.739" cy="4.739" r="4.739" transform="translate(166.748 136.227)"/><path class="c" d="M628.553,266.908H472.681a.527.527,0,1,1,0-1.053H628.553a.527.527,0,1,1,0,1.053Z" transform="translate(-277.496 -179.127)"/><path class="c" d="M628.553,300.908H472.681a.527.527,0,1,1,0-1.053H628.553a.527.527,0,1,1,0,1.053Z" transform="translate(-277.496 -195.223)"/><path class="c" d="M628.553,334.908H472.681a.527.527,0,1,1,0-1.053H628.553a.527.527,0,1,1,0,1.053Z" transform="translate(-277.496 -211.319)"/><path class="c" d="M628.553,368.908H472.681a.527.527,0,1,1,0-1.053H628.553a.527.527,0,1,1,0,1.053Z" transform="translate(-277.496 -227.415)"/><path class="d" d="M513.058,386.339H497.787a2.636,2.636,0,0,1-2.633-2.633V369.488a2.636,2.636,0,0,1,2.633-2.633h15.271a2.636,2.636,0,0,1,2.633,2.633v14.218A2.636,2.636,0,0,1,513.058,386.339Z" transform="translate(-288.384 -226.941)"/><path class="d" d="M578.058,370.243H562.787a2.636,2.636,0,0,1-2.633-2.633V335.488a2.636,2.636,0,0,1,2.633-2.633h15.271a2.636,2.636,0,0,1,2.633,2.633V367.61A2.636,2.636,0,0,1,578.058,370.243Z" transform="translate(-319.156 -210.846)"/><path class="d" d="M644.058,354.147H628.787a2.636,2.636,0,0,1-2.633-2.633V301.488a2.636,2.636,0,0,1,2.633-2.633h15.271a2.636,2.636,0,0,1,2.633,2.633v50.027A2.636,2.636,0,0,1,644.058,354.147Z" transform="translate(-350.401 -194.75)"/><path class="d" d="M712.058,338.525H696.787a2.636,2.636,0,0,1-2.633-2.633v-67.4a2.636,2.636,0,0,1,2.633-2.633h15.271a2.636,2.636,0,0,1,2.633,2.633v67.4A2.636,2.636,0,0,1,712.058,338.525Z" transform="translate(-382.592 -179.127)"/><path class="e" d="M628.553,402.908H472.681a.527.527,0,1,1,0-1.053H628.553a.527.527,0,1,1,0,1.053Z" transform="translate(-277.496 -243.511)"/><path class="f" d="M898.391,581.818a5.3,5.3,0,0,1,8.068-.918l16.722-8.63-1.04,9.723-15.72,6.705a5.324,5.324,0,0,1-8.03-6.88Z" transform="translate(-478.853 -324.186)"/><path class="e" d="M924.513,553.712a2.372,2.372,0,0,1-.8-1.165l-1.33-4.3a2.377,2.377,0,0,1,.836-2.591l13.553-10.237,14.679-27.231a7.634,7.634,0,1,1,12.059,9.364l-8.351,17.625A24.42,24.42,0,0,1,942.8,547.131l-15.884,6.889a2.372,2.372,0,0,1-1.932-.021,2.344,2.344,0,0,1-.472-.288Z" transform="translate(-490.586 -292.452)"/><circle class="f" cx="12.934" cy="12.934" r="12.934" transform="translate(460.356 178.505)"/><path class="f" d="M880.248,663.35h-6.456l-3.071-24.9h9.529Z" transform="translate(-412.204 -302.245)"/><path class="g" d="M860.747,682.233H873.2v7.839h-20.29A7.839,7.839,0,0,1,860.747,682.233Z" transform="translate(-403.771 -322.973)"/><path class="f" d="M920.248,663.352h-6.456l-3.071-24.9h9.529Z" transform="translate(-431.141 -302.245)"/><path class="g" d="M900.747,682.234H913.2v7.839h-20.29A7.839,7.839,0,0,1,900.747,682.234Z" transform="translate(-422.707 -322.973)"/><path class="g" d="M996.222,696.275h-7.566a2.374,2.374,0,0,1-2.288-1.753l-10.89-40.39a.263.263,0,0,0-.517.084l2.2,38.306a2.369,2.369,0,0,1-2.563,2.5l-8.5-.709a2.376,2.376,0,0,1-2.157-2.087l-7.747-80.435,3,1.8,28.083-4.768,11.3,84.774a2.37,2.37,0,0,1-2.349,2.683Z" transform="translate(-506.642 -341.488)"/><path class="e" d="M965.085,567.7a17.346,17.346,0,0,1-8.79-2.474,2.359,2.359,0,0,1-1.125-2.417c.988-6.049,6.153-37.076,10.852-53.991,1.914-6.889,6.146-10.6,12.579-11.029,9.409-.617,17.772,6.744,18.643,16.43,1.536,17.087-4.7,41.364-7.459,51.009a2.368,2.368,0,0,1-3.732,1.214l-5.614-4.367a1.861,1.861,0,0,0-2.378.1C973.329,566.393,968.834,567.7,965.085,567.7Z" transform="translate(-506.144 -288.908)"/><path class="h" d="M904.892,443.738l4.739,20.011-6.847,16.85,4.74-16.324Z" transform="translate(-427.383 -210.068)"/><path class="g" d="M997.391,459.807a8.709,8.709,0,0,0,3.364-.608c.471-.181.96-.331,1.43-.512a11.6,11.6,0,0,0,6.983-10.472,15.08,15.08,0,0,0-5.626-11.612,21.773,21.773,0,0,0-12.288-4.645c-4.779-.364-10.16.848-12.831,4.827a4.192,4.192,0,0,0-.787,3.624,2.319,2.319,0,0,0,.653,1c1.193,1.061,2.382.263,3.6.193a3.977,3.977,0,0,1,3.711,2.84,8.559,8.559,0,0,1-.134,4.945,12.352,12.352,0,0,0-.623,3.007,3.023,3.023,0,0,0,1.252,2.662,3.45,3.45,0,0,0,3.46-.364,24.041,24.041,0,0,1,3.076-1.97,2.72,2.72,0,0,1,3.3.668,3.65,3.65,0,0,1,.417,1.205c.589,2.683.453,2.525,1.042,5.208Z" transform="translate(-516.721 -257.733)"/><path class="i" d="M901.063,664.1l-80.988-28.205a5.559,5.559,0,0,1-3.417-7.07L837.7,568.392a4.073,4.073,0,0,1,5.179-2.5l83.725,29.158a4.143,4.143,0,0,1,2.547,5.269L908.133,660.68A5.559,5.559,0,0,1,901.063,664.1Z" transform="translate(-440.44 -321.058)"/><path class="b" d="M833.3,639.153l70.819,24.663a5.384,5.384,0,0,0,6.856-3.314l16.994-48.8a5.385,5.385,0,0,0-3.314-6.856l-70.819-24.663a5.384,5.384,0,0,0-6.856,3.314l-16.994,48.8A5.384,5.384,0,0,0,833.3,639.153Z" transform="translate(-446.753 -327.791)"/><path class="d" d="M866.709,621.75l-3.507-1.221a.761.761,0,0,1-.468-.967l1.221-3.507a.761.761,0,0,1,.967-.468l3.507,1.221a.761.761,0,0,1,.468.967l-1.221,3.507A.761.761,0,0,1,866.709,621.75Z" transform="translate(-462.379 -344.672)"/><path class="e" d="M860.7,639.006l-3.507-1.221a.76.76,0,0,1-.468-.967l1.221-3.507a.76.76,0,0,1,.967-.468l3.507,1.221a.76.76,0,0,1,.468.967l-1.221,3.507a.761.761,0,0,1-.967.468Z" transform="translate(-459.534 -352.841)"/><path class="c" d="M854.69,656.262l-3.507-1.222a.76.76,0,0,1-.468-.967l1.222-3.507a.76.76,0,0,1,.967-.468l3.507,1.221a.76.76,0,0,1,.468.967l-1.221,3.507A.761.761,0,0,1,854.69,656.262Z" transform="translate(-456.689 -361.01)"/><path class="c" d="M899.424,632.562l-16.9-5.885a.76.76,0,0,1,.5-1.435l16.9,5.885a.76.76,0,1,1-.5,1.435Z" transform="translate(-471.527 -349.243)"/><path class="c" d="M893.415,649.818l-16.9-5.885a.76.76,0,1,1,.5-1.435l16.9,5.885a.76.76,0,1,1-.5,1.435Z" transform="translate(-468.682 -357.412)"/><path class="c" d="M887.4,667.074l-16.9-5.885a.76.76,0,1,1,.5-1.435l16.9,5.885a.76.76,0,1,1-.5,1.435Z" transform="translate(-465.837 -365.581)"/><path class="d" d="M974.961,664.006c.123-.3.239-.6.346-.9a15.923,15.923,0,0,0-9.8-20.275l-5.554,15.949Z" transform="translate(-508.422 -357.589)"/><path class="e" d="M942.85,659.821l5.554-15.949a15.923,15.923,0,1,0,9.455,21.176Z" transform="translate(-492.936 -357.661)"/><path class="f" d="M994.629,611a5.3,5.3,0,0,1,5.782-5.7l7.832-17.11,5.182,8.293-8.232,14.977A5.324,5.324,0,0,1,994.629,611Z" transform="translate(-524.831 -331.724)"/><path class="e" d="M1014.189,566.028a2.372,2.372,0,0,1-1.35-.422l-3.7-2.56a2.377,2.377,0,0,1-.942-2.555l4.347-16.419-5.255-30.486a7.634,7.634,0,0,1,15.267-.074l4.306,19.022a24.419,24.419,0,0,1-2.346,17.029l-8.244,15.223a2.372,2.372,0,0,1-1.533,1.176A2.34,2.34,0,0,1,1014.189,566.028Z" transform="translate(-530.833 -292.773)"/><path class="c" d="M1006.08,797.894H906.027a.527.527,0,1,1,0-1.053H1006.08a.527.527,0,1,1,0,1.053Z" transform="translate(-482.644 -430.499)"/><path class="j" d="M490.54,662.853H497l3.071-24.9h-9.528Z" transform="translate(-232.224 -302.01)"/><path class="g" d="M589.914,782.4h12.714a8.1,8.1,0,0,1,8.1,8.1v.263H589.914Z" transform="translate(-333.244 -423.66)"/><path class="j" d="M441.54,662.853H448l3.071-24.9h-9.528Z" transform="translate(-209.027 -302.01)"/><path class="g" d="M540.914,782.4h12.714a8.1,8.1,0,0,1,8.1,8.1v.263H540.914Z" transform="translate(-310.048 -423.66)"/><circle class="j" cx="12.934" cy="12.934" r="12.934" transform="translate(246.671 162.579)"/><path class="g" d="M576.928,678.285H564.947a2.37,2.37,0,0,1-2.369-2.4l.7-56.889a.79.79,0,0,0-1.574-.105L554.728,676.2a2.372,2.372,0,0,1-2.352,2.083h-12.1a2.369,2.369,0,0,1-2.362-2.554l7.987-102.2.217-.024,38.246-4.13-5.073,106.65A2.367,2.367,0,0,1,576.928,678.285Z" transform="translate(-308.625 -322.817)"/><path class="e" d="M551.753,531.821a2.368,2.368,0,0,1-2.361-2.3c-.209-6.462-.567-28.822,3.593-45.237a21.55,21.55,0,0,1,19.9-16.24h0a21.685,21.685,0,0,1,21.358,13.7c6.991,17.748,13.6,39.624,5.361,43.055-10.792,4.5-39.244,6.5-47.706,7.008Q551.825,531.821,551.753,531.821Z" transform="translate(-314.008 -274.832)"/><path class="j" d="M642.139,401.221a5.548,5.548,0,0,0,.656.576l-1.358,26.08-5.647,2.891,3.249,9.093,10.495-4.147a4.213,4.213,0,0,0,2.647-4.308l-2.749-29.584a5.528,5.528,0,1,0-7.293-.6Z" transform="translate(-354.963 -238.781)"/><path class="e" d="M630.289,460.672l3.973,11.29a2.37,2.37,0,0,1-1.785,3.113l-11.714,2.268a6.581,6.581,0,0,1-4.333-12.429l10.518-5.552a2.37,2.37,0,0,1,3.341,1.309Z" transform="translate(-343.706 -270.605)"/><path class="j" d="M532.416,401.221a5.55,5.55,0,0,1-.656.576l1.358,26.08,5.647,2.891-3.249,9.093-10.495-4.147a4.213,4.213,0,0,1-2.647-4.308l2.749-29.584a5.528,5.528,0,1,1,7.293-.6Z" transform="translate(-301.262 -238.781)"/><path class="e" d="M540.268,459.252a2.367,2.367,0,0,1,1.97.11l10.518,5.552a6.581,6.581,0,0,1-4.333,12.429l-11.714-2.268a2.37,2.37,0,0,1-1.785-3.113l3.973-11.29A2.367,2.367,0,0,1,540.268,459.252Z" transform="translate(-307.148 -270.605)"/><path class="g" d="M584.955,415.835a8.5,8.5,0,0,1,4.761-7.987c3.931-2.03,6.4-6.359,5.319-10.312-1.385-5.06-8.272-8.342-13.852-6.6a25.576,25.576,0,0,0-4.35,2.022l-3.646,1.954a37.777,37.777,0,0,0-4.494,2.653,14.911,14.911,0,0,0-5.935,13.971c.718,5.144,4.087,9.862,8.7,13.092a14.712,14.712,0,0,0,5.961,2.649,7.92,7.92,0,0,0,6.287-1.424c2.526-2.148,2.265-5.746,1.448-8.75A6.367,6.367,0,0,1,584.955,415.835Z" transform="translate(-320.326 -238.118)"/><path class="c" d="M598.08,797.894H498.027a.527.527,0,0,1,0-1.053H598.08a.527.527,0,1,1,0,1.053Z" transform="translate(-289.495 -430.499)"/><path class="i" d="M274.41,551.915l-82.558,33.869a5.784,5.784,0,0,1-7.538-3.153l-25.272-61.6a4.238,4.238,0,0,1,2.309-5.523L246.7,480.492a4.311,4.311,0,0,1,5.618,2.349l25.244,61.535A5.784,5.784,0,0,1,274.41,551.915Z" transform="translate(-129.117 -280.585)"/><path class="b" d="M202.016,585.5l72.191-29.616a5.6,5.6,0,0,0,3.057-7.31L256.857,498.83a5.6,5.6,0,0,0-7.31-3.057l-72.191,29.616a5.6,5.6,0,0,0-3.057,7.31l20.407,49.744A5.6,5.6,0,0,0,202.016,585.5Z" transform="translate(-136.291 -287.773)"/><rect class="i" width="1.147" height="0.191" transform="translate(119.105 225.058) rotate(-22.306)"/><path class="i" d="M264.927,530.392l-2.144.88-.073-.177,2.144-.88Zm-4.288,1.759-2.144.88-.073-.177,2.144-.88Zm-4.288,1.759-2.144.88-.073-.177,2.144-.88Zm-4.288,1.759-2.144.88-.073-.177,2.144-.88Zm-4.288,1.759-2.144.88-.073-.177,2.144-.88Zm-4.288,1.759-2.144.88-.073-.177,2.144-.88Zm-4.288,1.759-2.144.88-.073-.177,2.144-.88Zm-4.288,1.759-2.144.88-.073-.177,2.144-.88Zm-4.288,1.759-2.144.88-.073-.177,2.144-.88Zm-4.288,1.759-2.144.88-.073-.177,2.144-.88Zm-4.288,1.759-2.144.88-.073-.177,2.144-.88Zm-4.288,1.759-2.144.88-.073-.177,2.144-.88Zm-4.288,1.759-2.144.88-.073-.177,2.144-.88Zm-4.288,1.759-2.144.88-.073-.177,2.144-.88Zm-4.288,1.759-2.144.88-.073-.177,2.144-.88Zm-4.288,1.759-2.144.88-.073-.177,2.144-.88Z" transform="translate(-147.892 -304.277)"/><rect class="i" width="1.147" height="0.191" transform="translate(47.287 254.521) rotate(-22.306)"/><rect class="i" width="1.147" height="0.191" transform="translate(91.007 255.805) rotate(-22.306)"/><path class="i" d="M242.9,588.756l-2.112.867-.073-.177,2.112-.867Zm-4.225,1.733-2.112.867-.073-.177,2.112-.867Zm-4.225,1.733-2.112.867-.073-.177,2.112-.867Zm-4.225,1.733-2.112.867-.073-.177,2.112-.867ZM226,595.689l-2.112.867-.073-.177,2.112-.867Zm-4.225,1.733-2.112.867-.073-.177,2.112-.867Zm-4.225,1.733-2.112.867-.073-.177,2.112-.867Zm-4.225,1.733-2.112.867-.073-.177,2.112-.867Z" transform="translate(-153.931 -331.907)"/><rect class="i" width="1.147" height="0.191" transform="translate(54.036 270.973) rotate(-22.306)"/><rect class="i" width="1.147" height="0.191" transform="translate(73.504 272.079) rotate(-22.306)"/><path class="i" d="M228.259,619.708l-2.173.892-.073-.177,2.173-.892Zm-4.347,1.783-2.173.892-.073-.177,2.173-.892Zm-4.346,1.783-2.173.892-.073-.177,2.173-.892Z" transform="translate(-156.856 -346.56)"/><rect class="i" width="1.147" height="0.191" transform="translate(57.229 278.756) rotate(-22.306)"/><rect class="i" width="1.147" height="0.191" transform="translate(78.952 285.362) rotate(-22.306)"/><path class="i" d="M238.607,644.931l-2.173.892-.073-.177,2.173-.892Zm-4.347,1.783-2.173.892-.073-.177,2.173-.892Zm-4.346,1.783-2.173.892-.073-.177,2.173-.892Z" transform="translate(-161.755 -358.5)"/><rect class="i" width="1.147" height="0.191" transform="translate(62.678 292.038) rotate(-22.306)"/><path class="d" d="M233.132,594.939l61.177-25.1a6.046,6.046,0,0,0,3.295-7.879l-12.36-30.129-.12.053-15.013,35.9-11.135-4.655a1.444,1.444,0,0,0-1.283.08,1.538,1.538,0,0,0-.638.755l-7.868,18.811-8.141-3.4a1.45,1.45,0,0,0-1.9.778C239.1,580.276,234.078,592.592,233.132,594.939Z" transform="translate(-164.342 -305.043)"/><path class="e" d="M232.616,594.911l-.176-.074,6.3-15.054a1.627,1.627,0,0,1,2.126-.872l7.98,3.337,7.823-18.707a1.627,1.627,0,0,1,2.126-.872l10.974,4.589,15.09-36.084.176.074-15.164,36.26-11.15-4.663a1.434,1.434,0,0,0-1.876.77l-7.9,18.884-8.157-3.411a1.436,1.436,0,0,0-1.876.77Z" transform="translate(-164.014 -304.731)"/><circle class="e" cx="1.338" cy="1.338" r="1.338" transform="translate(73.263 270.394)"/><circle class="e" cx="1.338" cy="1.338" r="1.338" transform="translate(90.766 254.12)"/><circle class="e" cx="1.338" cy="1.338" r="1.338" transform="translate(118.021 223.326)"/><path class="f" d="M179.927,572.23a5.316,5.316,0,0,0,1.9-7.927l3.975-38.865h-8.59l-3.159,37.95a5.345,5.345,0,0,0,5.874,8.842Z" transform="translate(-135.482 -302.015)"/><circle class="f" cx="12.154" cy="12.154" r="12.154" transform="translate(40.179 177.667)"/><path class="k" d="M196.2,531.933a2.223,2.223,0,0,1-2.142-1.632c-.974-3.538-3.507-9.519-7.53-17.78a14.727,14.727,0,0,1,8.363-20.333h0a14.721,14.721,0,0,1,18.916,9.378c3.118,9.775,2.967,20.246,2.758,24.294a2.232,2.232,0,0,1-1.749,2.061l-18.139,3.961a2.212,2.212,0,0,1-.478.052Z" transform="translate(-141.577 -285.877)"/><path class="f" d="M137.081,665.388h6.066l2.886-23.4H137.08Z" transform="translate(-64.894 -303.921)"/><path class="g" d="M0,0H19.067V7.367H7.367A7.367,7.367,0,0,1,0,0H0Z" transform="translate(89.952 367.101) rotate(179.997)"/><path class="f" d="M21.882,653.061l5.317,2.923L41,636.869l-7.846-4.314Z" transform="translate(-10.359 -299.455)"/><path class="g" d="M0,0H19.067V7.367H7.367A7.367,7.367,0,0,1,0,0H0Z" transform="translate(24.379 367.101) rotate(-151.199)"/><path class="g" d="M189.786,663.918a2.227,2.227,0,0,1-2.206-1.94l-7.587-58.465a1.237,1.237,0,0,0-2.31-.438l-31.619,57.367a2.239,2.239,0,0,1-2.743,1.007l-6.892-2.626a2.227,2.227,0,0,1-1.27-2.92l21.9-53.808a1.718,1.718,0,0,0,.112-.426c2.967-22.962,10.515-34.639,12.758-37.671a1.724,1.724,0,0,0,.245-1.57l-.308-.925a2.226,2.226,0,0,1,.429-2.166c8.081-9.2,22.167-4.182,22.308-4.13l.071.026.044.06c15.794,21.66,9.954,92.013,8.624,105.9a2.221,2.221,0,0,1-2.046,2l-9.339.719C189.9,663.916,189.843,663.918,189.786,663.918Z" transform="translate(-117.883 -315.438)"/><path class="f" d="M262.793,484.833a5.215,5.215,0,0,0-.118.812l-21.257,12.263-5.167-2.974-5.508,7.211,8.635,6.155a3.959,3.959,0,0,0,4.75-.116l21.92-17.293a5.194,5.194,0,1,0-3.254-6.057Z" transform="translate(-163.21 -280.895)"/><path class="k" d="M231.319,505.327l-6.87,8.9a2.227,2.227,0,0,1-3.367.184L213.3,506.34a6.184,6.184,0,0,1,7.584-9.77l9.755,5.455a2.227,2.227,0,0,1,.676,3.3Z" transform="translate(-153.823 -287.734)"/><path class="k" d="M187.5,525.233l-11.068-2a2.227,2.227,0,0,1-1.714-2.9l3.588-10.623a6.184,6.184,0,1,1,12.165,2.234l-.35,11.171a2.227,2.227,0,0,1-2.621,2.121Z" transform="translate(-136.634 -292.169)"/><path class="g" d="M166.212,442.836c3.124,2.138,7.225,4.336,10.416,2.059a5.806,5.806,0,0,0,1.905-6.693c-1.528-4.369-5.725-6.292-9.739-7.766-5.218-1.917-10.9-3.441-16.286-2.069s-10.147,6.588-9.175,12.061c.782,4.4,4.934,8.063,4.344,12.495-.593,4.46-5.608,6.807-10.036,7.6s-9.382,1.053-12.564,4.233c-4.059,4.057-3.046,11.309.774,15.592s9.584,6.225,15.169,7.545c7.4,1.749,15.4,2.668,22.432-.234s12.5-10.715,10.462-18.042c-.86-3.095-2.886-5.71-4.844-8.256s-3.94-5.209-4.687-8.333a8.662,8.662,0,0,1,1.565-7.578,2.2,2.2,0,0,0,.294-2.566Z" transform="translate(-111.955 -255.812)"/><path class="c" d="M203.08,797.894H103.027a.527.527,0,0,1,0-1.053H203.08a.527.527,0,0,1,0,1.053Z" transform="translate(-102.5 -430.499)"/></g></svg>