<svg xmlns="http://www.w3.org/2000/svg" width="20" height="19.999" viewBox="0 0 20 19.999"><defs><style>.a{fill:#150956;}</style></defs><path class="a" d="M18.358,22h-.029A16.131,16.131,0,0,1,7.52,17.476a16.114,16.114,0,0,1-4.525-10.8,2.105,2.105,0,0,1,.617-1.511L6.467,2.308a1.052,1.052,0,0,1,1.488,0l4.209,4.209a1.052,1.052,0,0,1,0,1.488L10.485,9.681a7.891,7.891,0,0,0,1.677,3.148,7.876,7.876,0,0,0,3.144,1.678l1.684-1.677a1.052,1.052,0,0,1,1.488,0l4.209,4.209a1.052,1.052,0,0,1,0,1.488l-2.856,2.855A2.08,2.08,0,0,1,18.358,22ZM7.209,4.541H7.2L5.1,6.65a13.937,13.937,0,0,0,3.906,9.338,13.944,13.944,0,0,0,9.337,3.906l2.112-2.11-2.727-2.72-1.361,1.36a1.039,1.039,0,0,1-.737.308,1.051,1.051,0,0,1-.22-.023,10.733,10.733,0,0,1-4.735-2.39,10.733,10.733,0,0,1-2.39-4.735,1.052,1.052,0,0,1,.287-.962l1.36-1.361Z" transform="translate(-2.995 -2)"/></svg>