<svg xmlns="http://www.w3.org/2000/svg" width="249.574" height="220.067" viewBox="0 0 249.574 220.067"><defs><style>.a{opacity:0.05;}</style></defs><g class="a" transform="translate(0 -7.328)"><path d="M100.264,51.025a12,12,0,0,0,6.04-16.107L96.439,14.181a12.036,12.036,0,0,0-15.7-5.837C63.621,15.593,48.924,25.055,37.247,36.531c-14.295,13.487-23.959,28.99-29.193,46.1C2.819,99.951,0,123.505,0,153.5v61.809a12.115,12.115,0,0,0,12.08,12.08H91.2a12.116,12.116,0,0,0,12.08-12.08V136.189a12.114,12.114,0,0,0-12.08-12.08H53.353c.4-20.337,5.235-36.643,14.093-48.926C74.695,65.322,85.567,57.268,100.264,51.025Z"/><path d="M170.763,50.923a12,12,0,0,0,6.04-16.107l-9.865-20.534a12.037,12.037,0,0,0-15.7-5.839,145.843,145.843,0,0,0-43.287,27.985c-14.3,13.691-24.16,29.193-29.4,46.307Q70.7,108.1,70.7,153.4v61.809a12.115,12.115,0,0,0,12.08,12.08H161.9a12.116,12.116,0,0,0,12.08-12.08V136.089a12.114,12.114,0,0,0-12.08-12.08H123.852c.4-20.337,5.237-36.643,14.093-48.926C145.193,65.22,156.065,57.167,170.763,50.923Z" transform="translate(71.642 0.102)"/></g></svg>