<svg xmlns="http://www.w3.org/2000/svg" width="83.031" height="97.505" viewBox="0 0 83.031 97.505"><defs><style>.a{fill:#150956;}</style></defs><path class="a" d="M82.934,26.455l0-.076c-.042-.937-.071-1.928-.088-3.03a10.334,10.334,0,0,0-9.73-10.124C61.9,12.6,53.23,8.944,45.82,1.721l-.063-.06a6.24,6.24,0,0,0-8.481,0l-.063.06C29.8,8.944,21.131,12.6,9.92,13.226A10.333,10.333,0,0,0,.19,23.35C.173,24.445.144,25.435.1,26.379l0,.176C-.12,37.987-.391,52.214,4.368,65.127a49.1,49.1,0,0,0,11.78,18.348C22.07,89.254,29.825,93.842,39.2,97.111a7.141,7.141,0,0,0,.945.257,6.978,6.978,0,0,0,2.743,0,7.162,7.162,0,0,0,.949-.259c9.363-3.275,17.111-7.865,23.027-13.642a49.17,49.17,0,0,0,11.78-18.353C83.421,52.162,83.151,37.908,82.934,26.455Zm-9.658,36.68c-5.02,13.611-15.267,22.958-31.327,28.574a1.437,1.437,0,0,1-.181.049,1.284,1.284,0,0,1-.5,0,1.422,1.422,0,0,1-.18-.048C25.007,86.1,14.753,76.76,9.737,63.149,5.35,51.246,5.6,38.186,5.818,26.665V26.6c.045-.99.074-2.027.091-3.167a4.593,4.593,0,0,1,4.329-4.5A50.2,50.2,0,0,0,27.278,15.19,44.577,44.577,0,0,0,41.163,5.862a.528.528,0,0,1,.708,0A44.594,44.594,0,0,0,55.756,15.19a50.2,50.2,0,0,0,17.039,3.748,4.592,4.592,0,0,1,4.328,4.5c.017,1.145.047,2.183.091,3.166C77.433,38.135,77.676,51.206,73.276,63.134Zm0,0" transform="translate(0 0.001)"/><path class="a" d="M114.7,128.41a24.3,24.3,0,1,0,24.3,24.3A24.327,24.327,0,0,0,114.7,128.41Zm0,42.878a18.578,18.578,0,1,1,18.578-18.578A18.6,18.6,0,0,1,114.7,171.288Zm0,0" transform="translate(-73.183 -103.956)"/><path class="a" d="M172.906,212.83,161.62,224.116l-3.063-3.063a2.861,2.861,0,1,0-4.046,4.045l5.087,5.087a2.861,2.861,0,0,0,4.045,0l13.31-13.31a2.861,2.861,0,0,0-4.046-4.045Zm0,0" transform="translate(-124.407 -171.619)"/></svg>