<svg xmlns="http://www.w3.org/2000/svg" width="68.889" height="73" viewBox="0 0 68.889 73"><defs><style>.a{fill:#150956;}</style></defs><g transform="translate(-14.416)"><path class="a" d="M148.364,59.937l-1.235.447a5.816,5.816,0,0,0-3.71,4.351l-.419,2.2a3.7,3.7,0,0,0,3.636,4.4h10.7a3.7,3.7,0,0,0,3.646-4.355l-.391-2.184a5.8,5.8,0,0,0-3.722-4.42l-1.309-.474V57.968a1.063,1.063,0,0,0-.013-.159,5.247,5.247,0,0,0,1.5-3.654V51.281a5.089,5.089,0,0,0-10.177,0v2.964a5.075,5.075,0,0,0,1.5,3.591,1.06,1.06,0,0,0-.009.132Zm10.124,5.231.391,2.184a1.564,1.564,0,0,1-1.541,1.839h-10.7a1.563,1.563,0,0,1-1.536-1.859l.419-2.2a3.666,3.666,0,0,1,2.338-2.743l.809-.293c.02.021.041.042.063.061a4.933,4.933,0,0,0,6.466,0,1.054,1.054,0,0,0,.093-.093l.853.309A3.657,3.657,0,0,1,158.488,65.169Zm-9.476-13.887a2.948,2.948,0,0,1,5.8-.734c-.137.067-.278.131-.423.188a3.555,3.555,0,0,1-2.68.244,1.069,1.069,0,1,0-1.228,1.751,3.541,3.541,0,0,0,2.04.549,7.116,7.116,0,0,0,2.387-.455v1.33a3.1,3.1,0,0,1-.928,2.2,2.988,2.988,0,0,1-.921.618l-.069.029a2.76,2.76,0,0,1-1.09.2,2.964,2.964,0,0,1-2.892-2.949Zm2.851,8.051h.1a4.961,4.961,0,0,0,1.463-.22v1.711a2.792,2.792,0,0,1-2.921,0V59.116A5.019,5.019,0,0,0,151.863,59.332Z" transform="translate(-110.194 -39.607)"/><path class="a" d="M81.833,338.043h33.3a1.069,1.069,0,1,0,0-2.139h-33.3a1.069,1.069,0,0,0,0,2.139Z" transform="translate(-56.888 -288.011)"/><path class="a" d="M81.833,378.484h33.3a1.069,1.069,0,1,0,0-2.139h-33.3a1.069,1.069,0,0,0,0,2.139Z" transform="translate(-56.888 -322.686)"/><path class="a" d="M81.833,418.923h33.3a1.069,1.069,0,1,0,0-2.139h-33.3a1.069,1.069,0,0,0,0,2.139Z" transform="translate(-56.888 -357.36)"/><path class="a" d="M81.833,459.364h33.3a1.069,1.069,0,1,0,0-2.139h-33.3a1.069,1.069,0,0,0,0,2.139Z" transform="translate(-56.888 -392.035)"/><path class="a" d="M80.764,256.093a1.069,1.069,0,0,0,1.069,1.069h33.3a1.069,1.069,0,1,0,0-2.139h-33.3a1.069,1.069,0,0,0-1.069,1.069Z" transform="translate(-56.888 -218.663)"/><path class="a" d="M81.833,297.6h33.3a1.069,1.069,0,1,0,0-2.139h-33.3a1.069,1.069,0,0,0,0,2.139Z" transform="translate(-56.888 -253.337)"/><path class="a" d="M54.114,338.023a1.073,1.073,0,1,0-1.073-1.073A1.073,1.073,0,0,0,54.114,338.023Z" transform="translate(-33.118 -287.987)"/><path class="a" d="M54.114,257.143a1.073,1.073,0,1,0-1.073-1.073A1.073,1.073,0,0,0,54.114,257.143Z" transform="translate(-33.118 -218.639)"/><path class="a" d="M54.114,297.583a1.073,1.073,0,1,0-1.073-1.073A1.073,1.073,0,0,0,54.114,297.583Z" transform="translate(-33.118 -253.313)"/><path class="a" d="M54.114,378.463a1.073,1.073,0,1,0-1.073-1.073A1.073,1.073,0,0,0,54.114,378.463Z" transform="translate(-33.118 -322.662)"/><path class="a" d="M54.114,418.9a1.073,1.073,0,1,0-1.073-1.073A1.073,1.073,0,0,0,54.114,418.9Z" transform="translate(-33.118 -357.336)"/><path class="a" d="M54.114,459.344a1.073,1.073,0,1,0-1.073-1.073A1.073,1.073,0,0,0,54.114,459.344Z" transform="translate(-33.118 -392.011)"/><path class="a" d="M81.6,16.841A7.392,7.392,0,0,1,80.564,15.3a7.793,7.793,0,0,1-.385-1.909,5.964,5.964,0,0,0-1.327-3.678A5.966,5.966,0,0,0,75.174,8.39,7.8,7.8,0,0,1,73.264,8a7.386,7.386,0,0,1-1.538-1.036,8.055,8.055,0,0,0-2.555-1.542V5.1a5.109,5.109,0,0,0-5.1-5.1H19.52a5.11,5.11,0,0,0-5.1,5.1V9.231a1.069,1.069,0,1,0,2.139,0V5.1A2.968,2.968,0,0,1,19.52,2.139H64.068A2.968,2.968,0,0,1,67.033,5.1v.324a8.058,8.058,0,0,0-2.555,1.542,7.4,7.4,0,0,1-1.537,1.036,7.809,7.809,0,0,1-1.91.385,5.965,5.965,0,0,0-3.679,1.326A5.964,5.964,0,0,0,56.026,13.4a7.8,7.8,0,0,1-.385,1.909A7.387,7.387,0,0,1,54.6,16.842a6,6,0,0,0-1.7,3.624,6,6,0,0,0,1.7,3.624,7.393,7.393,0,0,1,1.036,1.537,7.794,7.794,0,0,1,.385,1.909,5.964,5.964,0,0,0,1.327,3.678,5.965,5.965,0,0,0,3.679,1.327c.375.046.738.092,1.074.155V48.859a1.642,1.642,0,0,0,2.655,1.293l2.273-1.78V67.9a2.968,2.968,0,0,1-2.965,2.965H19.52A2.968,2.968,0,0,1,16.555,67.9V13.94a1.069,1.069,0,0,0-2.139,0V67.9a5.11,5.11,0,0,0,5.1,5.1H64.068a5.11,5.11,0,0,0,5.1-5.1V48.372l2.273,1.78A1.643,1.643,0,0,0,74.1,48.859V36.925a1.069,1.069,0,0,0-2.139,0V47.841L69.12,45.615a1.644,1.644,0,0,0-2.03,0l-2.846,2.228V33.778l.235.184a6,6,0,0,0,3.624,1.7,6,6,0,0,0,3.624-1.7,7.4,7.4,0,0,1,1.538-1.036,7.809,7.809,0,0,1,1.91-.385,5.966,5.966,0,0,0,3.679-1.326,5.965,5.965,0,0,0,1.327-3.678,7.8,7.8,0,0,1,.385-1.909A7.387,7.387,0,0,1,81.6,24.089a6,6,0,0,0,1.7-3.624,6,6,0,0,0-1.7-3.624Zm-1.678,5.922a8.959,8.959,0,0,0-1.334,2.044,9.4,9.4,0,0,0-.532,2.466A4.424,4.424,0,0,1,77.34,29.7a4.425,4.425,0,0,1-2.429.716,9.407,9.407,0,0,0-2.466.532A8.958,8.958,0,0,0,70.4,32.284a4.412,4.412,0,0,1-2.3,1.244,4.411,4.411,0,0,1-2.3-1.244A8.962,8.962,0,0,0,63.76,30.95c-.052-.021-.231-.09-.269-.1a10.637,10.637,0,0,0-2.2-.431,4.425,4.425,0,0,1-2.429-.716,4.424,4.424,0,0,1-.716-2.428,9.407,9.407,0,0,0-.532-2.466,8.963,8.963,0,0,0-1.334-2.044,4.411,4.411,0,0,1-1.244-2.3,4.41,4.41,0,0,1,1.244-2.3,8.959,8.959,0,0,0,1.334-2.044,9.4,9.4,0,0,0,.532-2.466,4.424,4.424,0,0,1,.716-2.428,4.425,4.425,0,0,1,2.429-.716,9.408,9.408,0,0,0,2.466-.532A8.958,8.958,0,0,0,65.8,8.647,4.424,4.424,0,0,1,68.1,7.4h.008A4.424,4.424,0,0,1,70.4,8.647a8.963,8.963,0,0,0,2.044,1.334,9.4,9.4,0,0,0,2.466.532,4.424,4.424,0,0,1,2.429.716,4.423,4.423,0,0,1,.716,2.428,9.4,9.4,0,0,0,.532,2.466,8.963,8.963,0,0,0,1.334,2.044,4.411,4.411,0,0,1,1.244,2.3A4.41,4.41,0,0,1,79.923,22.763Z"/><path class="a" d="M350.624,91.012l-3.639-1.03-2.1-3.142a1.351,1.351,0,0,0-2.245,0l-2.1,3.142-3.639,1.03a1.351,1.351,0,0,0-.694,2.135l2.339,2.972-.145,3.778a1.35,1.35,0,0,0,1.816,1.32l3.549-1.306,3.549,1.306a1.351,1.351,0,0,0,1.816-1.319l-.145-3.779,2.339-2.972a1.351,1.351,0,0,0-.693-2.135Zm-3.506,4.013a1.353,1.353,0,0,0-.288.887l.111,2.892-2.717-1a1.353,1.353,0,0,0-.933,0l-2.717,1,.111-2.893a1.355,1.355,0,0,0-.288-.886l-1.79-2.274,2.786-.788a1.353,1.353,0,0,0,.754-.548l1.61-2.405,1.61,2.405a1.354,1.354,0,0,0,.755.549l2.785.788Z" transform="translate(-275.656 -73.945)"/></g></svg>