<svg xmlns="http://www.w3.org/2000/svg" width="73" height="73" viewBox="0 0 73 73"><defs><style>.a{fill:#150956;}</style></defs><g transform="translate(0 1.213)"><path class="a" d="M71.6,8h-18.2a1.213,1.213,0,0,0-.858,2.071l5.209,5.209-2.582,2.582A31.178,31.178,0,0,0,36.405,11.64,31.5,31.5,0,0,0,6.1,51.9L.418,56.837a1.214,1.214,0,0,0-.136,1.692L6.349,65.81a1.214,1.214,0,0,0,.843.433c.03,0,.06,0,.09,0a1.213,1.213,0,0,0,.806-.306l3.586-3.188a31.524,31.524,0,0,0,51.062-36.9l2.792-2.792,5.209,5.209a1.213,1.213,0,0,0,2.071-.858V9.213A1.213,1.213,0,0,0,71.6,8ZM36.405,14.067a29.326,29.326,0,0,1,6.067.653V17.1a.608.608,0,0,1-.607.607H37.012a3.037,3.037,0,0,0-3.034,3.034v2.427a.608.608,0,0,1-.607.607H28.518a.608.608,0,0,1-.607-.607,3.037,3.037,0,0,0-3.034-3.034H23.664a3.037,3.037,0,0,0-3.034,3.034v3.64a.608.608,0,0,1-.607.607h-8.08A29.118,29.118,0,0,1,36.405,14.067ZM8.549,34.7h7.834a.608.608,0,0,1,.607.607v1.213a.608.608,0,0,1-.607.607H15.17a3.037,3.037,0,0,0-3.034,3.034.608.608,0,0,1-.607.607H7.391A28.939,28.939,0,0,1,8.549,34.7Zm2.98,8.494a3.037,3.037,0,0,0,3.034-3.034.608.608,0,0,1,.607-.607h1.213a3.037,3.037,0,0,0,3.034-3.034V35.3a3.037,3.037,0,0,0-3.034-3.034H9.415q.5-1.243,1.12-2.427h9.489a3.037,3.037,0,0,0,3.034-3.034v-3.64a.608.608,0,0,1,.607-.607h1.213a.608.608,0,0,1,.607.607A3.037,3.037,0,0,0,28.518,26.2h4.854a3.037,3.037,0,0,0,3.034-3.034V20.741a.608.608,0,0,1,.607-.607h4.854A3.037,3.037,0,0,0,44.9,17.1V15.345A28.81,28.81,0,0,1,53.428,19.6L35.192,37.834l-5.209-5.209a1.212,1.212,0,0,0-1.654-.057L8.128,50.133a29.163,29.163,0,0,1-.846-6.942Zm10.494,25.3a29.183,29.183,0,0,1-8.531-7.35l7.9-7.025h6.516a1.215,1.215,0,0,1,1.213,1.213,3.658,3.658,0,0,0,3.64,3.64,1.188,1.188,0,0,1,.865.371,1.167,1.167,0,0,1,.348.842v2.427a1.215,1.215,0,0,1-1.213,1.213H27.911A6.067,6.067,0,0,0,22.023,68.486Zm14.505,3.825a6.078,6.078,0,0,1,5.944-4.851h3.64a3.64,3.64,0,0,0,0-7.281H43.079a.607.607,0,1,1,0-1.213H60.867A29.117,29.117,0,0,1,36.528,72.311ZM62.276,56.539h-19.2a3.034,3.034,0,0,0,0,6.067h3.034a1.213,1.213,0,0,1,0,2.427h-3.64a8.5,8.5,0,0,0-8.381,7.176,29.1,29.1,0,0,1-9.8-2.56,3.634,3.634,0,0,1,3.616-3.4h4.854a3.644,3.644,0,0,0,3.64-3.64V60.179a3.658,3.658,0,0,0-3.64-3.64,1.188,1.188,0,0,1-.865-.371,1.167,1.167,0,0,1-.348-.842,3.644,3.644,0,0,0-3.64-3.64H24.126l4.95-4.4,5.258,5.258a1.213,1.213,0,0,0,1.715,0h0L50.256,38.337h4.958a1.82,1.82,0,1,1,0,3.64H50.967a3.64,3.64,0,1,0,0,7.281H64.888A28.9,28.9,0,0,1,62.276,56.539ZM64,33.872a28.92,28.92,0,0,1,1.292,12.96H50.967a1.215,1.215,0,0,1-1.213-1.213,1.185,1.185,0,0,1,.371-.864,1.165,1.165,0,0,1,.843-.35h4.247a4.247,4.247,0,0,0,0-8.494H52.683l2.427-2.427h8.744C63.9,33.613,63.957,33.74,64,33.872ZM62.86,31.056H57.537l3.448-3.448A29.153,29.153,0,0,1,62.86,31.056Zm7.522-6.57-4-4a1.213,1.213,0,0,0-1.715,0h0L35.192,49.969,29.982,44.76a1.213,1.213,0,0,0-1.664-.049L7.412,63.294l-4.5-5.406L29.066,35.141l5.268,5.267a1.213,1.213,0,0,0,1.715,0h0L60.319,16.139a1.213,1.213,0,0,0,0-1.715h0l-4-4H70.382Z" transform="translate(-0.001 -8)"/></g><g transform="translate(64.366 66.72)"><g transform="translate(0 0)"><rect class="a" width="3" height="2" transform="translate(-0.366 0.28)"/></g></g><g transform="translate(70.645 70.645)"><g transform="translate(0 0)"><rect class="a" width="2" height="2" transform="translate(0.355 0.355)"/></g></g><g transform="translate(68.29 60.441)"><g transform="translate(0 0)"><rect class="a" width="3" height="3" transform="translate(-0.291 -0.441)"/></g></g><g transform="translate(58.086 70.645)"><g transform="translate(0 0)"><rect class="a" width="2" height="2" transform="translate(-0.086 0.355)"/></g></g><g transform="translate(70.645 53.376)"><g transform="translate(0 0)"><rect class="a" width="2" height="3" transform="translate(0.355 -0.376)"/></g></g><rect class="a" width="2" height="2" transform="translate(0 0)"/><g transform="translate(6.279 2.355)"><g transform="translate(0 0)"><rect class="a" width="3" height="3" transform="translate(-0.28 -0.355)"/></g></g><g transform="translate(1.57 7.065)"><g transform="translate(0 0)"><rect class="a" width="2" height="2" transform="translate(0.43 -0.065)"/></g></g><g transform="translate(13.344)"><g transform="translate(0)"><rect class="a" width="3" height="2" transform="translate(-0.344 0)"/></g></g><g transform="translate(6.279 9.419)"><g transform="translate(0 0)"><rect class="a" width="3" height="3" transform="translate(-0.28 -0.419)"/></g></g><g transform="translate(0 14.914)"><g transform="translate(0 0)"><rect class="a" width="2" height="2" transform="translate(0 0.086)"/></g></g></svg>